<svg xmlns="http://www.w3.org/2000/svg" viewBox="0 0 410 404"><defs><linearGradient id="a" x1=".5" x2=".5" y2="1"><stop offset="0" stop-color="#00d8ff"/><stop offset="1" stop-color="#0071ff"/></linearGradient></defs><path fill="#15b6ff" d="M399.641 59.525 215.643 388.521c-4.991 8.98-17.986 8.982-22.981.004L10.36 59.525c-5.13-9.236 2.438-20.59 12.48-18.86l172.967 29.696a12.998 12.998 0 0 0 4.485 0l172.968-29.696c10.04-1.726 17.61 9.622 12.484 18.858Z"/><path fill="#17d1ff" d="M292.965.004 156.299 26.07a6.972 6.972 0 0 0-5.653 5.653L124.58 191.79a6.973 6.973 0 0 0 8.13 8.13l48.396-8.308c4.208-.722 7.816 3.086 7.094 7.294l-13.504 78.58c-.728 4.235 2.917 8.046 7.145 7.287l29.92-5.334a6.971 6.971 0 0 0 5.653-5.653l20.64-160.04a6.972 6.972 0 0 1 5.653-5.653l50.922-9.16c4.208-.758 7.815 3.085 7.093 7.293l-21.35 124.208c-.722 4.208 3.086 7.816 7.294 7.094l31.857-5.67a6.971 6.971 0 0 0 5.653-5.653L345.32 7.35C346.127 2.1 342.019-1.487 336.758-.566L292.966.004Z"/><path fill="url(#a)" d="M292.965.004 156.299 26.07a6.972 6.972 0 0 0-5.653 5.653L124.58 191.79a6.973 6.973 0 0 0 8.13 8.13l48.396-8.308c4.208-.722 7.816 3.086 7.094 7.294l-13.504 78.58c-.728 4.235 2.917 8.046 7.145 7.287l29.92-5.334a6.971 6.971 0 0 0 5.653-5.653l20.64-160.04a6.972 6.972 0 0 1 5.653-5.653l50.922-9.16c4.208-.758 7.815 3.085 7.093 7.293l-21.35 124.208c-.722 4.208 3.086 7.816 7.294 7.094l31.857-5.67a6.971 6.971 0 0 0 5.653-5.653L345.32 7.35C346.127 2.1 342.019-1.487 336.758-.566L292.966.004Z"/></svg>
