<svg width="1200" height="260" viewBox="0 0 1200 260" xmlns="http://www.w3.org/2000/svg" role="img" aria-labelledby="reboosTitle reboosDesc">
  <title id="reboosTitle">REBOOS identity</title>
  <desc id="reboosDesc">Neon gradient wordmark with infinity core and lightbulb motif for the Reboos quiz experience.</desc>
  <defs>
    <linearGradient id="reboosGradient" x1="0%" x2="100%" y1="0%" y2="0%">
      <stop offset="0%" stop-color="#ff4fd8" />
      <stop offset="30%" stop-color="#a855f7" />
      <stop offset="65%" stop-color="#00c0ff" />
      <stop offset="100%" stop-color="#00f5b8" />
    </linearGradient>
    <linearGradient id="reboosGlow" x1="0%" x2="100%" y1="0%" y2="0%">
      <stop offset="0%" stop-color="#f472b6" />
      <stop offset="50%" stop-color="#60a5fa" />
      <stop offset="100%" stop-color="#34d399" />
    </linearGradient>
    <filter id="softGlow" x="-20%" y="-20%" width="140%" height="140%">
      <feGaussianBlur stdDeviation="6" result="blur" />
      <feMerge>
        <feMergeNode in="blur" />
        <feMergeNode in="SourceGraphic" />
      </feMerge>
    </filter>
  </defs>
  <rect width="1200" height="260" rx="42" fill="#050714" stroke="#111827" stroke-width="2" />
  <g filter="url(#softGlow)">
    <text x="50" y="180" font-size="150" font-weight="700" font-family="'Poppins','Segoe UI',sans-serif" fill="url(#reboosGradient)">REB</text>
    <path d="M430 130C390 70 300 70 250 130C300 190 390 190 430 130ZM520 130C560 70 650 70 700 130C650 190 560 190 520 130Z" fill="none" stroke="url(#reboosGlow)" stroke-width="20" stroke-linecap="round" />
    <circle cx="340" cy="130" r="18" fill="#0ea5e9" />
    <circle cx="610" cy="130" r="18" fill="#a855f7" />
    <path d="M340 130L610 130" stroke="#38bdf8" stroke-width="6" stroke-dasharray="14 16" stroke-linecap="round" />
    <text x="740" y="180" font-size="150" font-weight="700" font-family="'Poppins','Segoe UI',sans-serif" fill="url(#reboosGradient)">OS</text>
    <g transform="translate(950,50)">
      <path d="M100 70C100 40 125 20 150 20C175 20 200 40 200 70C200 95 186 120 164 132V158H136V132C114 120 100 95 100 70Z" fill="url(#reboosGlow)" />
      <rect x="134" y="158" width="32" height="18" rx="6" fill="#fef9c3" />
      <rect x="130" y="182" width="40" height="14" rx="4" fill="#fde047" />
      <rect x="126" y="200" width="48" height="10" rx="4" fill="#fbbf24" />
      <path d="M124 214H176" stroke="#fde68a" stroke-width="6" stroke-linecap="round" />
    </g>
  </g>
</svg>
